<svg xmlns="http://www.w3.org/2000/svg" viewBox="0 0 512 512">
  <rect width="512" height="512" fill="#0a0a0a" rx="80"/>

  <!-- Grid of life weeks — 7 cols × 6 rows -->
  <!-- Row 0 (past) -->
  <rect x="116" y="136" width="30" height="30" fill="#4a7fa5" rx="4" opacity="0.8"/>
  <rect x="158" y="136" width="30" height="30" fill="#4a7fa5" rx="4" opacity="0.8"/>
  <rect x="200" y="136" width="30" height="30" fill="#4a7fa5" rx="4" opacity="0.8"/>
  <rect x="242" y="136" width="30" height="30" fill="#7a5fa5" rx="4" opacity="0.8"/>
  <rect x="284" y="136" width="30" height="30" fill="#7a5fa5" rx="4" opacity="0.8"/>
  <rect x="326" y="136" width="30" height="30" fill="#7a5fa5" rx="4" opacity="0.8"/>
  <rect x="368" y="136" width="30" height="30" fill="#5a9a7a" rx="4" opacity="0.8"/>

  <!-- Row 1 (past) -->
  <rect x="116" y="178" width="30" height="30" fill="#5a9a7a" rx="4" opacity="0.8"/>
  <rect x="158" y="178" width="30" height="30" fill="#5a9a7a" rx="4" opacity="0.8"/>
  <rect x="200" y="178" width="30" height="30" fill="#c9a84c" rx="4" opacity="0.8"/>
  <rect x="242" y="178" width="30" height="30" fill="#c9a84c" rx="4" opacity="0.8"/>
  <rect x="284" y="178" width="30" height="30" fill="#c9a84c" rx="4" opacity="0.8"/>
  <rect x="326" y="178" width="30" height="30" fill="#c9a84c" rx="4" opacity="0.8"/>
  <rect x="368" y="178" width="30" height="30" fill="#c97a4c" rx="4" opacity="0.8"/>

  <!-- Row 2 (past → current) -->
  <rect x="116" y="220" width="30" height="30" fill="#c97a4c" rx="4" opacity="0.8"/>
  <rect x="158" y="220" width="30" height="30" fill="#c97a4c" rx="4" opacity="0.8"/>
  <rect x="200" y="220" width="30" height="30" fill="#c97a4c" rx="4" opacity="0.8"/>
  <!-- CURRENT WEEK — glowing gold -->
  <rect x="242" y="220" width="30" height="30" fill="#c9a84c" rx="4"/>
  <rect x="242" y="220" width="30" height="30" fill="none" stroke="#c9a84c" stroke-width="3" rx="4" opacity="0.6"/>
  <rect x="236" y="214" width="42" height="42" fill="none" stroke="#c9a84c" stroke-width="2" rx="7" opacity="0.3"/>

  <!-- Row 2 future -->
  <rect x="284" y="220" width="30" height="30" fill="#1e1e1a" rx="4" opacity="0.6"/>
  <rect x="326" y="220" width="30" height="30" fill="#1e1e1a" rx="4" opacity="0.6"/>
  <rect x="368" y="220" width="30" height="30" fill="#1e1e1a" rx="4" opacity="0.6"/>

  <!-- Row 3 (future) -->
  <rect x="116" y="262" width="30" height="30" fill="#1e1e1a" rx="4" opacity="0.5"/>
  <rect x="158" y="262" width="30" height="30" fill="#1e1e1a" rx="4" opacity="0.5"/>
  <rect x="200" y="262" width="30" height="30" fill="#1e1e1a" rx="4" opacity="0.4"/>
  <rect x="242" y="262" width="30" height="30" fill="#1e1e1a" rx="4" opacity="0.4"/>
  <rect x="284" y="262" width="30" height="30" fill="#1e1e1a" rx="4" opacity="0.3"/>
  <rect x="326" y="262" width="30" height="30" fill="#1e1e1a" rx="4" opacity="0.3"/>
  <rect x="368" y="262" width="30" height="30" fill="#1e1e1a" rx="4" opacity="0.2"/>

  <!-- Row 4 (future, fading) -->
  <rect x="116" y="304" width="30" height="30" fill="#1e1e1a" rx="4" opacity="0.3"/>
  <rect x="158" y="304" width="30" height="30" fill="#1e1e1a" rx="4" opacity="0.3"/>
  <rect x="200" y="304" width="30" height="30" fill="#1e1e1a" rx="4" opacity="0.2"/>
  <rect x="242" y="304" width="30" height="30" fill="#1e1e1a" rx="4" opacity="0.2"/>
  <rect x="284" y="304" width="30" height="30" fill="#1e1e1a" rx="4" opacity="0.15"/>
  <rect x="326" y="304" width="30" height="30" fill="#1e1e1a" rx="4" opacity="0.15"/>
  <rect x="368" y="304" width="30" height="30" fill="#1e1e1a" rx="4" opacity="0.1"/>

  <!-- Row 5 (future, almost invisible) -->
  <rect x="116" y="346" width="30" height="30" fill="#1e1e1a" rx="4" opacity="0.15"/>
  <rect x="158" y="346" width="30" height="30" fill="#1e1e1a" rx="4" opacity="0.12"/>
  <rect x="200" y="346" width="30" height="30" fill="#1e1e1a" rx="4" opacity="0.1"/>
  <rect x="242" y="346" width="30" height="30" fill="#1e1e1a" rx="4" opacity="0.08"/>
  <rect x="284" y="346" width="30" height="30" fill="#1e1e1a" rx="4" opacity="0.06"/>
  <rect x="326" y="346" width="30" height="30" fill="#1e1e1a" rx="4" opacity="0.05"/>
  <rect x="368" y="346" width="30" height="30" fill="#1e1e1a" rx="4" opacity="0.04"/>
</svg>
